JK_SCALED_running_Exp_kinematics.mot
nRows=16
nColumns=34
inDegrees=yes
endheader
time	pelvis_rotation	pelvis_obliquity	pelvis_tilt	pelvis_tx	pelvis_ty	pelvis_tz	hip_flexion_r	hip_adduction_r	hip_rotation_r	knee_angle_r	ankle_angle_r	subtalar_angle_r	mtp_angle_r	hip_flexion_l	hip_adduction_l	hip_rotation_l	knee_angle_l	ankle_angle_l	subtalar_angle_l	mtp_angle_l	lumbar_extension	lumbar_bending	lumbar_rotation	arm_flex_r	arm_add_r	arm_rot_r	elbow_flex_r	pro_sup_r	arm_flex_l	arm_add_l	arm_rot_l	elbow_flex_l	pro_sup_l
   0.00000   -2.95537   -6.97156   -1.06405    0.21495    1.04665    0.00504   26.59139   10.48099   -2.50079  -19.97195   10.21348    5.56994   15.96591  -11.34819   -4.41881   -0.06287  -88.08264  -15.00852  -11.89719   -0.12473  -16.21362   10.80849  -18.03234  -23.14810  -18.30536   -0.96582   90.22594  108.83574  -19.40299  -17.65176   -0.24191   88.02768  121.55624
   0.01542   -4.49149   -9.09086   -0.29631    0.27292    1.03124    0.00649   26.12210   13.44620   -2.50628  -24.66042    3.85534    3.01603   18.17604   -8.41244   -7.75436   -2.27608  -96.99759  -14.43618  -13.28044   -0.46511  -17.72864   13.13863  -14.37189  -20.44963  -18.82606    0.12741   90.39044  108.40737  -19.29160  -16.31404   -0.45126   84.84469  121.33293
   0.03085   -5.98491  -12.18968    0.67842    0.32888    1.01608    0.00798   26.15233   17.38882   -2.64290  -31.63920    8.24442    2.52001   20.57165   -5.19187  -12.68622   -3.84133 -105.44621  -12.37716  -13.73593    0.83319  -19.86252   16.44417   -9.85017  -17.52300  -19.55886    1.27343   91.32708  107.84803  -18.86229  -15.09462   -0.21478   81.62708  119.99147
   0.04627   -7.97818  -14.84842    1.38242    0.38327    1.00245    0.00945   26.89531   21.16157   -1.82844  -39.22424   12.07622    1.16065   18.46211   -0.89293  -17.02901   -4.69117 -112.91206  -10.46229  -13.92573    2.09414  -21.93641   19.06932   -4.24222  -14.44778  -20.29807    2.31344   92.73995  107.19987  -18.15029  -13.73132    0.36268   78.28626  118.08078
   0.06170   -9.51981  -16.31564    1.16611    0.43837    0.99305    0.01086   26.85575   23.74841   -0.11019  -44.56805   15.78782    0.16452   17.57117    5.33121  -19.90686   -4.08338 -118.75205   -8.84224  -13.81471    3.57959  -22.94291   20.28860    1.16373  -11.22595  -20.68319    3.41633   93.51657  106.39867  -17.75191  -12.45171    0.77721   75.34929  117.00146
   0.07712  -10.18351  -16.24337    0.20930    0.49508    0.98819    0.01293   24.69138   24.20725    1.85611  -46.05201   19.90526    0.39836   17.19735   12.94036  -20.94794   -2.42178 -122.42898   -7.96195  -14.25323    5.22556  -22.57311   19.68139    4.69119   -7.80228  -20.39150    4.44035   93.83583  106.25551  -18.95211  -11.82603    0.27775   74.47071  117.30753
   0.09255   -9.38253  -14.98694    0.00905    0.55428    0.98889    0.01383   19.94134   22.57950    3.03093  -45.11874   23.63991    1.40607   17.34421   19.62566  -20.04865    0.03056 -123.60701   -6.77778  -14.91958    6.13738  -22.36117   18.12280    6.36395   -5.38509  -19.32066    4.30111   94.84773  107.78364  -20.77803  -12.02501   -0.14968   75.44701  118.78593
   0.10797   -7.95173  -11.93123    0.32652    0.61547    0.99438    0.01375   13.54231   18.81345    4.17044  -42.44916   26.47561    2.26245   17.69215   24.98997  -16.54592    1.38038 -122.40442   -5.40502  -15.73149    5.78943  -22.24321   14.79191    6.95940   -4.28997  -17.94508    3.58787   96.56737  109.35817  -22.76054  -12.78630   -0.47368   77.53674  119.76410
   0.12340   -6.86836   -8.92965   -0.20857    0.67684    1.00296    0.01348    7.88933   15.29669    5.95582  -38.64241   26.44178    1.52903   18.04851   30.55846  -12.97197    1.56027 -119.29022   -4.49125  -15.93555    4.93911  -21.23382   11.40519    8.08777   -3.99269  -17.08244    2.93101   98.63919  109.79369  -24.61465  -13.50523   -0.39537   79.64593  119.68255
   0.13882   -6.27288   -6.02885   -1.27441    0.73955    1.01398    0.01382    2.80882   11.88348    8.08985  -34.18346   23.56590    0.09928   19.48029   35.57334   -9.72575    0.67195 -114.29568   -3.66918  -15.72756    2.65020  -19.56579    7.95797    9.79695   -4.34673  -16.56630    2.24532  100.63850  109.63441  -26.27154  -14.32517    0.06751   81.30324  118.49054
   0.15425   -5.68061   -2.94900   -2.27824    0.80422    1.02708    0.01394   -2.38085    7.86764    8.82871  -28.95888   18.10624   -0.67547   22.70591   39.20159   -6.30588   -0.79322 -107.61457   -2.80898  -15.49513   -0.13387  -17.86799    4.34644   11.36383   -5.13080  -16.29981    1.84551  102.37960  109.52279  -27.83529  -15.24311    0.47549   82.62997  117.24884
   0.16967   -4.83562    0.45856   -2.89990    0.87059    1.04186    0.01337   -7.50277    3.29335    7.03350  -23.72669   10.00620   -0.38091   28.27732   41.24294   -2.40529   -2.40895  -99.42990   -2.12048  -15.52731   -1.17908  -16.57973    0.46819   12.25971   -5.99209  -16.12269    1.90533  103.74212  109.88789  -29.42698  -15.99951    0.27330   83.73102  117.00156
   0.18510   -4.02048    3.88718   -3.11412    0.93824    1.05735    0.01254  -12.57330   -1.25577    2.88687  -18.63316   -0.68411    1.09472   35.89619   41.84147    1.48087   -4.08803  -89.99391   -1.63450  -15.66216   -2.07632  -15.74495   -3.45566   12.79387   -6.78449  -16.08541    2.27128  104.58535  111.20080  -31.05966  -16.48318   -0.46337   84.66481  117.08061
   0.20052   -3.27302    6.34535   -3.48648    1.00621    1.07177    0.01217  -16.82989   -4.39266   -1.74679  -14.29377  -12.68557    2.75888   39.15286   41.86000    4.27596   -5.20480  -79.70434   -1.27939  -15.53348   -2.16247  -14.73344   -6.40854   13.42007   -7.53568  -16.23735    2.96248  104.93157  112.54223  -32.59435  -16.60574   -1.55552   85.28647  117.15667
   0.21595   -2.39285    7.71179   -3.56437    1.07383    1.08483    0.01186  -20.66069   -5.86902   -4.60107  -11.35055  -22.74017    3.35346   31.87882   40.90514    6.14129   -5.49577  -68.88947   -0.59376  -14.78883   -1.78758  -14.11671   -8.18266   13.97933   -8.14980  -16.62697    3.81760  104.96606  114.32931  -33.93645  -16.35622   -2.93803   85.89761  117.61668
   0.23137   -1.87739    7.80310   -4.21653    1.14097    1.09350    0.01222  -22.75744   -5.94773   -4.91917  -10.96021  -29.75382    1.98895   19.88168   40.16905    6.62577   -5.28175  -58.12602    0.42567  -13.25722   -0.77158  -12.75788   -8.66521   15.12191   -8.87995  -17.36473    4.86900  104.88274  115.33455  -35.15949  -16.01362   -4.23638   86.49404  118.14387
